<?xml version="1.0" encoding="UTF-8" standalone="no"?>
<svg
   viewBox="0 0 50 50"
   width="50px"
   height="50px"
   version="1.1"
   id="svg1"
   sodipodi:docname="about.svg"
   inkscape:version="1.3.2 (1:1.3.2+202311252150+091e20ef0f)"
   xmlns:inkscape="http://www.inkscape.org/namespaces/inkscape"
   xmlns:sodipodi="http://sodipodi.sourceforge.net/DTD/sodipodi-0.dtd"
   xmlns="http://www.w3.org/2000/svg"
   xmlns:svg="http://www.w3.org/2000/svg">
  <defs
     id="defs1" />
  <sodipodi:namedview
     id="namedview1"
     pagecolor="#ffffff"
     bordercolor="#000000"
     borderopacity="0.25"
     inkscape:showpageshadow="2"
     inkscape:pageopacity="0.0"
     inkscape:pagecheckerboard="0"
     inkscape:deskcolor="#d1d1d1"
     inkscape:zoom="5.4022958"
     inkscape:cx="38.22449"
     inkscape:cy="48.960666"
     inkscape:window-width="1920"
     inkscape:window-height="1017"
     inkscape:window-x="0"
     inkscape:window-y="26"
     inkscape:window-maximized="1"
     inkscape:current-layer="svg1" />
  <path
     style="fill:#000000;stroke-width:0.179638"
     d="M 20.671907,48.727862 C 15.228153,47.84075 9.777652,44.668588 6.3986168,40.420893 2.7629259,35.85056 1.1552442,31.301543 1.1565352,25.588138 1.157172,22.644972 1.4765637,20.519107 2.2667446,18.197957 4.0006709,13.104553 7.1895142,8.9472893 11.664732,5.9458907 17.411596,2.0916351 25.179526,1.0831998 31.962189,3.3108677 c 1.918542,0.6301169 4.918231,2.1786625 6.46847,3.3392531 1.605856,1.2022278 3.873387,3.4687972 5.083054,5.0808982 1.234641,1.64538 2.952832,5.15214 3.520637,7.185485 0.757243,2.711711 0.902211,3.822279 0.891056,6.826206 -0.01154,3.107471 -0.347429,5.144793 -1.272889,7.720607 -2.731899,7.603652 -9.325582,13.35942 -17.293531,15.0959 -1.887535,0.411355 -6.632426,0.503469 -8.687079,0.168645 z m 5.048623,-7.183938 c 0.855574,-0.357482 1.261445,-0.73467 1.686322,-1.567139 0.328787,-0.644211 0.342595,-1.102631 0.295249,-9.803529 l -0.04966,-9.127715 -0.477972,-0.722079 c -1.428926,-2.158705 -4.864831,-1.663746 -5.695067,0.820399 -0.141288,0.422754 -0.202864,3.26914 -0.200134,9.251311 0.0037,8.037676 0.02724,8.690831 0.337666,9.359234 0.828639,1.784187 2.437352,2.485726 4.103602,1.789518 z M 25.64009,16.428341 c 0.891041,-0.372303 1.698453,-1.404174 1.840641,-2.352342 0.155879,-1.039491 -0.439046,-2.332003 -1.355215,-2.944278 -0.524759,-0.350697 -0.806964,-0.409173 -1.706552,-0.353614 -1.805984,0.111536 -2.784375,1.156705 -2.784375,2.974415 0,2.032233 2.133965,3.457796 4.005501,2.675819 z"
     id="path1" />
</svg>
