<?xml version="1.0" encoding="UTF-8" standalone="no"?>
<svg
   viewBox="0 0 50 50"
   width="50px"
   height="50px"
   version="1.1"
   id="svg1"
   sodipodi:docname="activity.svg"
   inkscape:version="1.3.2 (1:1.3.2+202311252150+091e20ef0f)"
   xmlns:inkscape="http://www.inkscape.org/namespaces/inkscape"
   xmlns:sodipodi="http://sodipodi.sourceforge.net/DTD/sodipodi-0.dtd"
   xmlns="http://www.w3.org/2000/svg"
   xmlns:svg="http://www.w3.org/2000/svg">
  <defs
     id="defs1" />
  <sodipodi:namedview
     id="namedview1"
     pagecolor="#ffffff"
     bordercolor="#000000"
     borderopacity="0.25"
     inkscape:showpageshadow="2"
     inkscape:pageopacity="0.0"
     inkscape:pagecheckerboard="0"
     inkscape:deskcolor="#d1d1d1"
     inkscape:zoom="7.64"
     inkscape:cx="9.2277487"
     inkscape:cy="43.651833"
     inkscape:window-width="1920"
     inkscape:window-height="1017"
     inkscape:window-x="0"
     inkscape:window-y="26"
     inkscape:window-maximized="1"
     inkscape:current-layer="svg1" />
  <path
     style="fill:#000000;stroke-width:0.213368"
     d="M 22.464455,48.612296 C 21.124872,48.424135 20.41659,47.90762 20.114209,46.898359 19.817581,45.908309 20.066519,45.092744 20.90609,44.304 c 0.501655,-0.471277 0.657572,-0.490242 3.897547,-0.474094 2.775061,0.01389 3.47177,0.08021 3.919438,0.373563 1.160936,0.760682 1.309759,2.697913 0.285914,3.721758 -0.772381,0.77238 -3.728005,1.082668 -6.544534,0.687069 z M 32.745132,46.616593 C 31.516518,45.985189 31.003423,44.37508 31.647381,43.171838 31.816532,42.855769 32.606044,42.281429 33.557024,41.782637 38.410609,39.2369 42.1148,34.616448 43.406369,29.49696 45.966795,19.34801 39.886025,9.0361447 29.741928,6.3245977 23.417795,4.634145 16.262821,6.6148437 11.607292,11.344777 c -1.321779,1.342907 -1.355487,1.402797 -0.789533,1.402797 1.337905,0 2.491306,1.156624 2.489517,2.496479 -0.0011,0.82828 -0.683005,1.865085 -1.414202,2.150236 C 11.009516,17.73886 4.1711989,18.550747 3.4628861,18.395177 2.7094586,18.229699 1.8399002,17.213239 1.6835217,16.31521 1.6177042,15.937265 1.4790521,14.043786 1.375397,12.107465 1.1701273,8.2729787 1.2859775,7.5745727 2.2378739,6.9078397 c 0.8118827,-0.568668 2.1990952,-0.451842 2.9862619,0.251493 0.5426225,0.484834 0.6909081,0.807837 0.7756268,1.689513 l 0.1047427,1.090092 1.8506022,-1.866532 C 15.888971,0.07024173 27.84164,-1.4251712 37.500972,4.3758798 c 2.11826,1.2721519 5.485943,4.4475349 6.925723,6.5302512 3.32767,4.81364 4.87179,10.627161 4.304351,16.205611 -0.821387,8.074978 -5.57064,15.15212 -12.626489,18.815483 -1.936846,1.005603 -2.51374,1.123985 -3.359425,0.689368 z M 11.420403,44.454689 C 9.8429151,43.393118 8.0032801,41.75571 7.5319127,40.993649 6.7162466,39.67496 7.2046208,37.922114 8.5435681,37.36267 c 1.145755,-0.47873 1.8492869,-0.199184 3.6633059,1.455586 0.899041,0.820122 1.885647,1.639765 2.19246,1.821431 1.43922,0.852176 1.647422,2.849228 0.412123,3.953063 -0.941163,0.840996 -2.000249,0.79788 -3.391054,-0.138061 z M 26.110154,31.770634 c -4.209044,-1.890379 -4.618183,-2.121899 -4.960475,-2.80709 -0.330135,-0.660866 -0.373101,-1.479638 -0.373394,-7.115592 -3.63e-4,-7.11072 0.0657,-7.49914 1.381952,-8.123737 0.887852,-0.421315 1.455161,-0.424914 2.249244,-0.01428 1.112286,0.575183 1.160937,0.838756 1.275937,6.912691 l 0.106684,5.634702 3.520573,1.565174 c 4.204103,1.869056 4.803294,2.371554 4.632693,3.885123 -0.08378,0.74331 -0.268428,1.117558 -0.774458,1.569693 -1.111658,0.993259 -1.837299,0.838374 -7.058756,-1.506693 z M 3.5625915,33.348856 C 3.1900539,33.185403 2.7410489,32.82796 2.5648029,32.554527 2.1487233,31.909008 1.6589504,29.947051 1.362167,27.736935 1.1565021,26.205369 1.172418,25.878727 1.4847848,25.220463 c 0.6010318,-1.266584 2.011953,-1.717868 3.2955526,-1.054088 0.8064551,0.41703 1.1826431,1.178857 1.3678996,2.770166 0.081966,0.704118 0.2862334,1.822155 0.453917,2.484527 0.3692551,1.458618 0.3830202,2.124677 0.058628,2.836639 -0.487534,1.070022 -1.9624328,1.589471 -3.0981879,1.091149 z"
     id="path1" />
</svg>
