<?xml version="1.0" encoding="UTF-8" standalone="no"?>
<svg
   viewBox="0 0 50 50"
   width="50px"
   height="50px"
   version="1.1"
   id="svg1"
   sodipodi:docname="camera.svg"
   inkscape:version="1.3.2 (1:1.3.2+202311252150+091e20ef0f)"
   xmlns:inkscape="http://www.inkscape.org/namespaces/inkscape"
   xmlns:sodipodi="http://sodipodi.sourceforge.net/DTD/sodipodi-0.dtd"
   xmlns="http://www.w3.org/2000/svg"
   xmlns:svg="http://www.w3.org/2000/svg">
  <defs
     id="defs1" />
  <sodipodi:namedview
     id="namedview1"
     pagecolor="#ffffff"
     bordercolor="#000000"
     borderopacity="0.25"
     inkscape:showpageshadow="2"
     inkscape:pageopacity="0.0"
     inkscape:pagecheckerboard="0"
     inkscape:deskcolor="#d1d1d1"
     inkscape:zoom="3.82"
     inkscape:cx="6.2827225"
     inkscape:cy="69.240838"
     inkscape:window-width="1920"
     inkscape:window-height="1017"
     inkscape:window-x="0"
     inkscape:window-y="26"
     inkscape:window-maximized="1"
     inkscape:current-layer="svg1" />
  <path
     style="fill:#ffffff;stroke-width:0.266305"
     d="M 4.9260745,43.165376 C 4.441862,42.835824 3.7949959,42.22799 3.4885941,41.814631 2.9465632,41.083394 2.9294759,40.753517 2.8566701,29.615566 2.7819239,18.181462 2.7825416,18.166817 3.3791359,17.10532 c 1.0689613,-1.90196 1.927857,-2.221425 6.2531204,-2.325842 4.4947717,-0.108511 4.4425097,-0.07547 5.5420547,-3.504064 0.399262,-1.244974 0.966962,-2.4733039 1.261553,-2.7296223 0.485183,-0.4221446 1.307515,-0.4660319 8.73206,-0.4660319 7.424545,0 8.246878,0.043884 8.732061,0.4660319 0.294591,0.2563184 0.854869,1.4483592 1.245056,2.6489793 1.150635,3.540534 1.0508,3.476119 5.555002,3.5842 3.547775,0.08513 3.882983,0.137925 4.779609,0.752739 0.530338,0.363655 1.214024,1.105601 1.519302,1.648771 0.542073,0.964487 0.553304,1.255282 0.480224,12.435085 -0.0728,11.137951 -0.08989,11.467828 -0.631925,12.199065 -0.306401,0.413359 -0.953268,1.021193 -1.437479,1.350745 l -0.880387,0.599185 H 25.167924 5.8064593 Z m 23.8369605,-4.33891 c 3.33793,-1.131898 6.056744,-3.9584 7.094729,-7.375739 0.818507,-2.694754 0.612352,-5.615856 -0.565135,-8.007669 -2.18241,-4.433102 -7.183898,-7.10984 -11.789107,-6.30939 -6.876507,1.195233 -11.021632,7.866491 -8.98493,14.460557 1.222271,3.957255 4.266707,6.602741 8.918354,7.749666 0.957692,0.236132 3.965609,-0.05608 5.326089,-0.517425 z m -5.104529,-4.092772 c -4.938721,-1.250353 -6.785604,-7.070189 -3.447225,-10.862789 1.406823,-1.598234 2.759206,-2.19792 4.956643,-2.19792 2.197439,0 3.549821,0.599686 4.956643,2.19792 2.844891,3.231967 2.030593,8.084203 -1.697174,10.113107 -1.393478,0.758427 -3.45456,1.082435 -4.768887,0.749682 z m 18.759955,-12.68805 c 1.132543,-0.793263 0.540172,-2.786616 -0.825256,-2.777018 -1.68214,0.01183 -2.22939,2.059378 -0.776627,2.905768 0.639701,0.372693 0.917895,0.350333 1.601883,-0.12875 z"
     id="path1" />
</svg>
