<?xml version="1.0" encoding="UTF-8" standalone="no"?>
<svg
   viewBox="0 0 50 50"
   width="50px"
   height="50px"
   version="1.1"
   id="svg1"
   sodipodi:docname="comments.svg"
   inkscape:version="1.3.2 (1:1.3.2+202311252150+091e20ef0f)"
   xmlns:inkscape="http://www.inkscape.org/namespaces/inkscape"
   xmlns:sodipodi="http://sodipodi.sourceforge.net/DTD/sodipodi-0.dtd"
   xmlns="http://www.w3.org/2000/svg"
   xmlns:svg="http://www.w3.org/2000/svg">
  <defs
     id="defs1" />
  <sodipodi:namedview
     id="namedview1"
     pagecolor="#ffffff"
     bordercolor="#000000"
     borderopacity="0.25"
     inkscape:showpageshadow="2"
     inkscape:pageopacity="0.0"
     inkscape:pagecheckerboard="0"
     inkscape:deskcolor="#d1d1d1"
     inkscape:zoom="5.4022958"
     inkscape:cx="29.246825"
     inkscape:cy="41.186193"
     inkscape:window-width="1920"
     inkscape:window-height="1017"
     inkscape:window-x="0"
     inkscape:window-y="26"
     inkscape:window-maximized="1"
     inkscape:current-layer="svg1" />
  <path
     d="m 25.422101,6.0312261 c -13.095476,0 -23.7110398,7.4378399 -23.7110398,16.6143949 0,4.272212 2.3046886,8.165765 6.0865625,11.108751 0.8822811,0.686424 1.2912886,1.822175 1.0489639,2.913111 l -1.6294036,7.3328 c -0.1180797,0.531599 0.099352,1.081447 0.5491411,1.388268 0.4495571,0.307053 1.0411403,0.309189 1.4930689,0.0052 l 8.751423,-5.881229 c 0.767753,-0.515948 1.70006,-0.728868 2.615774,-0.596565 1.548789,0.224072 3.152115,0.343337 4.795747,0.343337 13.094764,0 23.710565,-7.438082 23.710565,-16.613923 C 49.132667,13.469114 38.517102,6.0312734 25.422101,6.0312734 Z"
     id="path1"
     style="stroke-width:0.237107" />
</svg>
