<?xml version="1.0" encoding="UTF-8" standalone="no"?>
<svg
   viewBox="0 0 50 50"
   width="50px"
   height="50px"
   version="1.1"
   id="svg1"
   sodipodi:docname="disliked.svg"
   inkscape:version="1.3.2 (1:1.3.2+202311252150+091e20ef0f)"
   xmlns:inkscape="http://www.inkscape.org/namespaces/inkscape"
   xmlns:sodipodi="http://sodipodi.sourceforge.net/DTD/sodipodi-0.dtd"
   xmlns="http://www.w3.org/2000/svg"
   xmlns:svg="http://www.w3.org/2000/svg">
  <defs
     id="defs1" />
  <sodipodi:namedview
     id="namedview1"
     pagecolor="#ffffff"
     bordercolor="#000000"
     borderopacity="0.25"
     inkscape:showpageshadow="2"
     inkscape:pageopacity="0.0"
     inkscape:pagecheckerboard="0"
     inkscape:deskcolor="#d1d1d1"
     inkscape:zoom="5.4022958"
     inkscape:cx="9.8106438"
     inkscape:cy="20.26916"
     inkscape:window-width="1920"
     inkscape:window-height="1017"
     inkscape:window-x="0"
     inkscape:window-y="26"
     inkscape:window-maximized="1"
     inkscape:current-layer="svg1" />
  <path
     style="fill:#000000;stroke-width:0.040608"
     d="M 23.053302,47.377082 C 18.188794,44.165584 14.519729,41.173393 9.9512761,36.692123 6.1897675,33.002392 4.7462836,31.034528 3.0702765,27.311433 1.1501239,23.045973 0.65463911,19.335175 1.4620347,15.266927 2.005272,12.529689 3.0225972,10.398349 4.6036088,8.6851958 5.8604626,7.3232978 7.2633137,6.3301313 8.9831736,5.5846226 11.199374,4.6239695 13.78824,4.4309606 16.165487,5.049161 c 2.674012,0.6953723 5.292999,2.5909969 7.128448,5.159573 0.416992,0.583551 0.433146,0.61883 1.420367,3.101113 1.756847,4.417438 1.916508,4.828838 1.901052,4.898397 -0.01816,0.08165 -0.329986,0.423819 -2.820496,3.094778 -4.151907,4.452735 -5.083071,5.462393 -5.096764,5.526435 -0.0078,0.03667 0.59791,0.864072 1.346119,1.838707 1.926908,2.510043 5.00189,6.514836 6.541299,8.519255 0.72141,0.939338 1.311665,1.73056 1.311665,1.758281 0,0.02771 -0.428789,0.96617 -0.952864,2.085444 -0.524071,1.119273 -1.447603,3.092197 -2.052288,4.384276 -0.604683,1.292073 -1.122836,2.356386 -1.151445,2.365143 -0.02862,0.0087 -0.337882,-0.172811 -0.687278,-0.403481 z m 3.202777,0.407359 c 0,-0.01265 0.443547,-0.967308 0.985654,-2.12144 0.542108,-1.154132 1.158785,-2.472217 1.370391,-2.929076 0.211606,-0.456861 0.69703,-1.499293 1.078717,-2.316508 l 0.69398,-1.485851 -0.233897,-0.313904 c -0.12864,-0.17264 -0.742492,-0.974267 -1.364115,-1.781389 -0.621616,-0.807117 -2.438979,-3.174486 -4.038576,-5.260819 -1.599596,-2.086325 -3.07025,-4.002198 -3.268118,-4.257489 L 21.120348,26.853797 21.5293,26.40424 c 0.224924,-0.247251 2.017713,-2.177131 3.983971,-4.288611 1.966259,-2.111487 3.58195,-3.858913 3.590413,-3.883178 0.0084,-0.02427 -0.628779,-1.664579 -1.416101,-3.645161 -0.787324,-1.980581 -1.431504,-3.635025 -1.431504,-3.67653 0,-0.181614 0.746308,-1.2054825 1.401855,-1.9232193 1.140042,-1.2481902 1.982578,-1.951303 3.244444,-2.7075395 4.289295,-2.5705964 9.58744,-1.9895106 13.53807,1.4848081 1.940474,1.7065181 3.249941,3.9761297 3.913052,6.7822207 0.604143,2.556545 0.686866,4.888514 0.262257,7.392825 -0.554331,3.269426 -2.468622,7.58321 -4.61896,10.408671 -0.734114,0.964594 -1.169531,1.459808 -2.494435,2.836997 -4.541516,4.72076 -9.233197,8.656998 -14.319857,12.014101 -0.972653,0.641931 -0.926426,0.612754 -0.926426,0.584817 z"
     id="path1" />
</svg>
