<?xml version="1.0" encoding="UTF-8" standalone="no"?>
<!-- Created with Inkscape (http://www.inkscape.org/) -->

<svg
   width="14.807348mm"
   height="14.789833mm"
   viewBox="0 0 14.807348 14.789833"
   version="1.1"
   id="svg1"
   sodipodi:docname="home.svg"
   inkscape:version="1.3.2 (1:1.3.2+202311252150+091e20ef0f)"
   xmlns:inkscape="http://www.inkscape.org/namespaces/inkscape"
   xmlns:sodipodi="http://sodipodi.sourceforge.net/DTD/sodipodi-0.dtd"
   xmlns="http://www.w3.org/2000/svg"
   xmlns:svg="http://www.w3.org/2000/svg">
  <sodipodi:namedview
     id="namedview1"
     pagecolor="#ffffff"
     bordercolor="#000000"
     borderopacity="0.25"
     inkscape:showpageshadow="2"
     inkscape:pageopacity="0.0"
     inkscape:pagecheckerboard="0"
     inkscape:deskcolor="#d1d1d1"
     inkscape:document-units="mm"
     inkscape:zoom="8.2545789"
     inkscape:cx="33.920568"
     inkscape:cy="39.43266"
     inkscape:window-width="1920"
     inkscape:window-height="1017"
     inkscape:window-x="0"
     inkscape:window-y="26"
     inkscape:window-maximized="1"
     inkscape:current-layer="layer1" />
  <defs
     id="defs1" />
  <g
     inkscape:label="Layer 1"
     inkscape:groupmode="layer"
     id="layer1"
     transform="translate(-104.51042,-99.218751)">
    <path
       style="fill:#333333;stroke-width:0.128444"
       d="m 95.550763,96.70092 c -0.0471,-0.0471 -0.0856,-0.54032 -0.0856,-1.09605 0,-1.54121 0.57959,-2.50566 1.92666,-3.20602 0.56961,-0.29615 0.63566,-0.30051 4.559747,-0.30051 3.88656,0 3.99473,0.007 4.52407,0.2898 0.82137,0.43889 1.42984,1.03044 1.78903,1.73927 0.34161,0.67413 0.52046,1.76826 0.38033,2.32661 l -0.0835,0.33253 h -6.46256 c -3.554407,0 -6.501087,-0.0385 -6.548177,-0.0856 z m 5.481567,-5.74139 c -1.848307,-0.46785 -3.114057,-2.01223 -3.224837,-3.93472 -0.0443,-0.76928 1.3e-4,-1.11085 0.22084,-1.69566 0.36227,-0.95999 1.23764,-1.92145 2.163187,-2.375955 0.64133,-0.31494 0.8763,-0.35905 1.88846,-0.35453 1.2019,0.006 1.7203,0.17517 2.66331,0.872355 0.57562,0.42558 1.23045,1.49718 1.4545,2.38025 0.76069,2.99811 -2.14594,5.87256 -5.16546,5.10826 z"
       id="path1" />
    <path
       style="fill:#333333;fill-opacity:1;stroke-width:0.0300421"
       d="m 107.4267,113.41275 c -0.23036,-0.0786 -0.40532,-0.2202 -0.54519,-0.44164 -0.0877,-0.13891 -0.088,-0.14576 -0.10813,-3.0231 l -0.0202,-2.8839 -0.6721,-0.0198 c -0.67133,-0.0198 -0.67219,-0.0199 -0.75739,-0.12698 -0.21708,-0.27248 -0.27093,-0.70697 -0.12437,-1.0041 0.0533,-0.10833 1.06142,-1.12856 3.0555,-3.09252 2.95844,-2.913709 2.97712,-2.931162 3.20919,-2.996507 0.26233,-0.07393 0.48611,-0.05437 0.7145,0.06211 0.0776,0.03966 1.47787,1.393397 3.11163,3.008397 2.39934,2.37181 2.97989,2.96582 3.01961,3.08946 0.0816,0.25405 0.0363,0.62303 -0.10412,0.84709 l -0.12106,0.19315 -0.68406,0.0199 -0.68409,0.0198 -0.0202,2.88567 c -0.0192,2.73666 -0.0241,2.89174 -0.0959,3.00322 -0.12332,0.19117 -0.27662,0.33798 -0.44858,0.42947 -0.15636,0.0832 -0.21086,0.0863 -1.76473,0.098 l -1.60338,0.0117 -1.2e-4,-1.98105 c -1e-4,-1.90662 -0.002,-1.9859 -0.0803,-2.11067 -0.15764,-0.25499 -0.26819,-0.28771 -0.9724,-0.28788 -0.58729,-3.4e-4 -0.63851,0.006 -0.76641,0.0902 -0.28342,0.1867 -0.2781,0.14235 -0.27818,2.32619 l -6e-5,1.95905 -1.5227,-0.001 c -1.36927,-0.001 -1.54429,-0.009 -1.73667,-0.0742 z"
       id="path1-5"
       sodipodi:nodetypes="csscssssssssscccsssscsscsscccc" />
  </g>
</svg>
