<?xml version="1.0" encoding="UTF-8" standalone="no"?>
<svg
   viewBox="0 0 50 50"
   width="50px"
   height="50px"
   version="1.1"
   id="svg1"
   sodipodi:docname="liked.svg"
   inkscape:version="1.3.2 (1:1.3.2+202311252150+091e20ef0f)"
   xmlns:inkscape="http://www.inkscape.org/namespaces/inkscape"
   xmlns:sodipodi="http://sodipodi.sourceforge.net/DTD/sodipodi-0.dtd"
   xmlns="http://www.w3.org/2000/svg"
   xmlns:svg="http://www.w3.org/2000/svg">
  <defs
     id="defs1" />
  <sodipodi:namedview
     id="namedview1"
     pagecolor="#ffffff"
     bordercolor="#000000"
     borderopacity="0.25"
     inkscape:showpageshadow="2"
     inkscape:pageopacity="0.0"
     inkscape:pagecheckerboard="0"
     inkscape:deskcolor="#d1d1d1"
     inkscape:zoom="5.4022958"
     inkscape:cx="12.587241"
     inkscape:cy="33.781934"
     inkscape:window-width="1920"
     inkscape:window-height="1017"
     inkscape:window-x="0"
     inkscape:window-y="26"
     inkscape:window-maximized="1"
     inkscape:current-layer="svg1" />
  <path
     style="fill:#000000;stroke-width:0.0891654"
     d="m 24.61582,48.225823 c 0,-0.329681 -0.778807,-1.105001 -5.619018,-5.59388 C 15.339149,39.239782 10.69359,34.619725 9.126108,32.815426 4.4924046,27.48166 2.1557423,23.342672 1.3740052,19.083974 1.1742177,17.995539 1.1754892,15.88017 1.376427,14.762939 1.9663323,11.486068 4.1031708,8.201726 6.960898,6.179524 8.614863,5.0091343 10.753918,4.1007 12.712063,3.7370405 c 1.21311,-0.2252892 3.663428,-0.2272508 4.859501,-0.00363 2.388211,0.445989 4.847466,1.630958 6.682025,3.2196918 0.314412,0.2722844 0.597752,0.495067 0.629636,0.495067 0.03185,0 0.15525,-0.1043801 0.274149,-0.2320097 0.365427,-0.3922126 1.778458,-1.4149081 2.622569,-1.8981082 3.374676,-1.9317715 7.582649,-2.3139339 11.298328,-1.0260981 4.657075,1.6141143 8.245657,5.6168389 9.22482,10.2894377 0.219925,1.049444 0.219114,3.555851 -0.0012,4.681183 -0.706346,3.60292 -2.528119,7.109693 -5.918985,11.393566 -2.538617,3.207183 -5.598288,6.323609 -12.595391,12.829023 -3.659202,3.402079 -4.725756,4.477787 -4.725756,4.76631 0,0.184518 -0.02519,0.213665 -0.118064,0.136615 -0.08622,-0.07156 -0.146326,-0.06963 -0.222916,0.0073 -0.0804,0.0804 -0.104864,0.04093 -0.104864,-0.168897 z"
     id="path1" />
</svg>
