<?xml version="1.0" encoding="UTF-8" standalone="no"?>
<!-- Created with Inkscape (http://www.inkscape.org/) -->

<svg
   width="17.906858mm"
   height="17.110275mm"
   viewBox="0 0 17.906858 17.110275"
   version="1.1"
   id="svg1"
   inkscape:version="1.3.2 (1:1.3.2+202311252150+091e20ef0f)"
   sodipodi:docname="likeactive.svg"
   xmlns:inkscape="http://www.inkscape.org/namespaces/inkscape"
   xmlns:sodipodi="http://sodipodi.sourceforge.net/DTD/sodipodi-0.dtd"
   xmlns="http://www.w3.org/2000/svg"
   xmlns:svg="http://www.w3.org/2000/svg">
  <sodipodi:namedview
     id="namedview1"
     pagecolor="#ffffff"
     bordercolor="#000000"
     borderopacity="0.25"
     inkscape:showpageshadow="2"
     inkscape:pageopacity="0.0"
     inkscape:pagecheckerboard="0"
     inkscape:deskcolor="#d1d1d1"
     inkscape:document-units="mm"
     inkscape:zoom="4.132329"
     inkscape:cx="25.167406"
     inkscape:cy="65.096463"
     inkscape:window-width="1920"
     inkscape:window-height="1018"
     inkscape:window-x="0"
     inkscape:window-y="26"
     inkscape:window-maximized="1"
     inkscape:current-layer="layer1" />
  <defs
     id="defs1" />
  <g
     inkscape:label="Layer 1"
     inkscape:groupmode="layer"
     id="layer1"
     transform="translate(-96.443401,-71.198321)">
    <path
       style="fill:#7addff;stroke-width:0.0257211;fill-opacity:1"
       d="m 102.52077,88.159108 c -0.065,-0.03231 -0.13999,-0.09851 -0.18006,-0.159041 l -0.0686,-0.103707 -0.007,-3.995097 -0.007,-3.995097 h -2.47368 c -2.468262,0 -2.473988,-1.3e-4 -2.586439,-0.05454 -0.214961,-0.104062 -0.315634,-0.367736 -0.228008,-0.597186 0.03588,-0.09394 0.663725,-0.707039 4.086597,-3.990598 2.72889,-2.617845 4.07766,-3.894824 4.14712,-3.92637 0.12788,-0.05813 0.23871,-0.06004 0.37249,-0.0069 0.14426,0.05774 8.13967,7.7204 8.22655,7.884207 0.12114,0.228425 0.0248,0.524029 -0.20745,0.636461 -0.11247,0.05446 -0.11818,0.05454 -2.58668,0.05454 h -2.47398 v 3.965806 3.965804 l -0.0545,0.112704 c -0.0328,0.0679 -0.0961,0.140159 -0.15887,0.181742 l -0.10433,0.06905 -2.79263,0.0069 -2.79264,0.0069 z"
       id="path1-5" />
  </g>
</svg>
