<?xml version="1.0" encoding="UTF-8" standalone="no"?>
<!-- Created with Inkscape (http://www.inkscape.org/) -->

<svg
   width="118.00266mm"
   height="41.786407mm"
   viewBox="0 0 118.00266 41.786407"
   version="1.1"
   id="svg1"
   inkscape:version="1.3.2 (1:1.3.2+202311252150+091e20ef0f)"
   sodipodi:docname="logo.svg"
   xmlns:inkscape="http://www.inkscape.org/namespaces/inkscape"
   xmlns:sodipodi="http://sodipodi.sourceforge.net/DTD/sodipodi-0.dtd"
   xmlns="http://www.w3.org/2000/svg"
   xmlns:svg="http://www.w3.org/2000/svg">
  <sodipodi:namedview
     id="namedview1"
     pagecolor="#ffffff"
     bordercolor="#000000"
     borderopacity="0.25"
     inkscape:showpageshadow="2"
     inkscape:pageopacity="0.0"
     inkscape:pagecheckerboard="0"
     inkscape:deskcolor="#d1d1d1"
     inkscape:document-units="mm"
     inkscape:zoom="0.73049944"
     inkscape:cx="304.58613"
     inkscape:cy="295.68811"
     inkscape:window-width="1920"
     inkscape:window-height="1018"
     inkscape:window-x="0"
     inkscape:window-y="26"
     inkscape:window-maximized="1"
     inkscape:current-layer="layer1" />
  <defs
     id="defs1" />
  <g
     inkscape:label="Layer 1"
     inkscape:groupmode="layer"
     id="layer1"
     transform="translate(-51.858331,-88.89992)">
    <path
       style="fill:#1ad1ff;stroke-width:0.257056"
       d="m 69.23422,129.93115 c -7.704198,-1.65516 -13.734018,-7.39507 -15.692071,-14.93759 -0.730977,-2.81575 -0.728389,-7.16951 0.0059,-10.01026 1.764364,-6.82534 6.563702,-11.994659 13.313679,-14.340029 1.92736,-0.669687 2.716908,-0.796506 5.596775,-0.898969 2.824777,-0.100501 3.69525,-0.03389 5.526701,0.422912 7.293549,1.819166 13.180482,7.563033 15.017576,14.652616 0.228911,0.88339 0.518065,3.01669 0.642564,4.74066 0.291163,4.03175 0.576037,5.2474 1.82284,7.77864 3.208102,6.51301 10.391836,10.21422 17.458096,8.99479 5.36688,-0.92618 9.58514,-3.9934 12.18562,-8.86056 l 0.82672,-1.54732 0.92726,2.31009 0.92727,2.31008 -1.09217,1.47256 c -4.13058,5.5692 -10.48085,8.57292 -17.3543,8.20873 -3.29022,-0.17433 -5.14456,-0.63896 -7.86666,-1.97107 -4.318722,-2.11346 -7.23538,-5.03444 -9.378203,-9.39211 -1.392762,-2.83233 -1.913987,-4.96459 -2.16786,-8.86843 -0.216986,-3.33666 -0.728564,-5.36326 -1.943183,-7.69792 -2.685035,-5.160975 -7.848524,-8.516515 -13.744015,-8.93167 -6.375272,-0.448939 -12.919829,3.357643 -15.774288,9.17497 -2.420003,4.93192 -2.421909,10.01472 -0.0055,14.84086 2.529397,5.05195 7.189541,8.3032 13.02739,9.08886 5.274664,0.70985 11.507004,-1.90682 14.840566,-6.23087 0.506593,-0.65711 1.29607,-1.8966 1.754393,-2.75441 l 0.833314,-1.55967 0.927267,2.31009 0.92727,2.31008 -1.087498,1.47256 c -2.505074,3.39206 -6.126489,5.97864 -10.229708,7.30652 -1.976221,0.63954 -2.914784,0.78854 -5.470194,0.86841 -2.021528,0.0632 -3.660539,-0.0273 -4.755532,-0.26255 z m 74.03209,-0.0118 c -5.88988,-1.18296 -11.30792,-5.30243 -13.99419,-10.64013 -1.37406,-2.73029 -1.95298,-4.97316 -2.23031,-8.64074 -0.29034,-3.83956 -0.73201,-5.79012 -1.79723,-7.93708 -2.37904,-4.794986 -6.4364,-7.939787 -11.62701,-9.011939 -3.71186,-0.766705 -7.17902,-0.303503 -10.69227,1.428454 -1.72826,0.851997 -2.61499,1.517992 -4.369954,3.282136 l -2.201733,2.213259 2.043354,0.12852 2.043363,0.12853 2.06954,6.35536 c 1.13824,3.49544 2.12738,6.35802 2.19807,6.36127 0.0707,0.003 1.11176,-2.88986 2.3135,-6.42914 l 2.18497,-6.43504 1.13651,0.0737 1.13651,0.0737 2.20522,6.35997 c 1.21287,3.49798 2.26306,6.35987 2.33375,6.35976 0.0707,-1.1e-4 1.04409,-2.89101 2.16311,-6.42422 l 2.0346,-6.42404 h 1.88551 c 1.03703,0 1.8855,0.0957 1.8855,0.21263 0,0.11695 -0.50575,1.5918 -1.12389,3.27746 -0.61814,1.68566 -2.0255,5.60969 -3.12745,8.72007 -1.10196,3.11038 -2.11415,5.79982 -2.2493,5.97655 -0.1358,0.17755 -0.79266,0.32132 -1.46808,0.32132 -0.67229,0 -1.33725,-0.1446 -1.4777,-0.32132 -0.32491,-0.40882 -2.59676,-6.37956 -3.42157,-8.99235 -0.34509,-1.09316 -0.68959,-1.98964 -0.76557,-1.99218 -0.076,-0.003 -0.51792,1.18106 -0.98212,2.63021 -0.96188,3.00289 -2.82439,7.8751 -3.19361,8.35432 -0.13782,0.17889 -0.80041,0.32132 -1.49477,0.32132 -1.10405,0 -1.28753,-0.0811 -1.59854,-0.70691 -0.19323,-0.3888 -1.72684,-4.49527 -3.408024,-9.12548 -1.681181,-4.63022 -3.146762,-8.41858 -3.256846,-8.41858 -0.110083,0 -0.512179,0.63622 -0.893546,1.41381 -0.381368,0.7776 -0.756056,1.41087 -0.83264,1.4073 -0.07658,-0.004 -0.524063,-0.99672 -0.9944,-2.20697 l -0.855158,-2.200444 0.724072,-1.070504 c 1.074424,-1.588485 3.861822,-4.293499 5.595018,-5.429657 3.375474,-2.212699 6.860364,-3.212381 11.223314,-3.219535 9.68908,-0.01588 17.90459,6.704053 19.87835,16.25967 0.22326,1.08084 0.40592,2.72681 0.40592,3.6577 0,8.59044 6.13025,15.62454 14.6778,16.84194 7.92816,1.12917 16.00173,-4.37265 18.11323,-12.34346 0.58997,-2.22715 0.59437,-6.04834 0.01,-8.20388 -1.69435,-6.243915 -6.63184,-10.953782 -12.80354,-12.213299 -3.75538,-0.766396 -7.19574,-0.309377 -10.74292,1.427092 -2.77218,1.35708 -5.842,4.327977 -7.20392,6.971767 -0.49133,0.9538 -0.95118,1.73168 -1.02187,1.72862 -0.0707,-0.003 -0.51128,-0.99055 -0.97909,-2.19444 l -0.85056,-2.188882 1.14157,-1.599766 c 2.71295,-3.801872 7.28066,-6.763209 11.99853,-7.778888 2.23969,-0.48217 6.53299,-0.463991 8.81768,0.03734 1.01757,0.223281 3.00689,0.966541 4.4207,1.651686 4.24041,2.054951 7.30516,5.103836 9.36949,9.32101 1.35476,2.76764 1.81864,4.60861 1.99369,7.9123 0.38129,7.19622 -2.8865,13.70644 -9.00605,17.9422 -4.12176,2.85296 -10.17202,4.03542 -15.33845,2.99776 z M 65.892494,110.00598 v -9.31226 l 4.819798,0.11014 c 5.842807,0.1335 6.67438,0.3678 8.824984,2.48648 1.934294,1.90557 2.615546,3.65722 2.607929,6.70555 -0.0074,2.95189 -0.702143,4.79037 -2.483457,6.57169 -2.095728,2.09573 -3.372917,2.46456 -9.077984,2.62155 l -4.69127,0.1291 z m 9.878762,5.16543 c 4.334569,-1.9174 3.770793,-9.54315 -0.799348,-10.81221 -0.540185,-0.14999 -2.052149,-0.27337 -3.359921,-0.27416 l -2.377767,-0.002 v 5.74092 c 0,3.1575 0.04789,5.78911 0.106424,5.84802 0.05854,0.0589 1.281446,0.0799 2.717581,0.0467 1.900769,-0.044 2.910932,-0.19302 3.713031,-0.54783 z m 69.808564,-5.04699 v -9.12548 h 1.79938 1.7994 v 9.12548 9.12548 h -1.7994 -1.79938 z"
       id="path1" />
  </g>
</svg>
