<?xml version="1.0" encoding="UTF-8" standalone="no"?>
<svg
   viewBox="0 0 50 50"
   width="50px"
   height="50px"
   version="1.1"
   id="svg1"
   sodipodi:docname="posts.svg"
   inkscape:version="1.3.2 (1:1.3.2+202311252150+091e20ef0f)"
   xmlns:inkscape="http://www.inkscape.org/namespaces/inkscape"
   xmlns:sodipodi="http://sodipodi.sourceforge.net/DTD/sodipodi-0.dtd"
   xmlns="http://www.w3.org/2000/svg"
   xmlns:svg="http://www.w3.org/2000/svg">
  <defs
     id="defs1" />
  <sodipodi:namedview
     id="namedview1"
     pagecolor="#ffffff"
     bordercolor="#000000"
     borderopacity="0.25"
     inkscape:showpageshadow="2"
     inkscape:pageopacity="0.0"
     inkscape:pagecheckerboard="0"
     inkscape:deskcolor="#d1d1d1"
     inkscape:zoom="5.4022958"
     inkscape:cx="33.319168"
     inkscape:cy="25.637248"
     inkscape:window-width="1920"
     inkscape:window-height="1017"
     inkscape:window-x="0"
     inkscape:window-y="26"
     inkscape:window-maximized="1"
     inkscape:current-layer="svg1" />
  <path
     style="fill:#000000;stroke-width:0.262541"
     d="M 21.72993,48.723264 C 12.013007,47.166994 4.1092159,39.662195 2.1402221,30.122467 -0.42085302,17.714126 7.0170683,5.7208123 19.367058,2.3449697 21.077347,1.8774678 22.174342,1.77085 25.274238,1.77085 c 3.099895,0 4.19689,0.1066189 5.90718,0.5741197 8.842157,2.4169833 15.421455,9.3154083 17.226834,18.0624153 2.537324,12.293279 -4.755995,24.217208 -16.964294,27.735113 -1.823191,0.52536 -7.821036,0.883953 -9.714028,0.580766 z M 36.717761,34.373597 c 0.921765,-1.072032 0.853664,-2.313101 -0.174392,-3.178155 l -0.807766,-0.67969 H 25.274238 14.812872 l -0.807765,0.67969 c -0.599322,0.504296 -0.807769,0.901657 -0.807769,1.539842 0,1.008409 0.813397,2.15838 1.646115,2.327264 0.322018,0.06533 5.232964,0.10275 10.913209,0.08319 l 10.327727,-0.03552 z m -3.7e-5,-7.613697 c 0.809616,-0.941549 0.809541,-2.048557 -2.09e-4,-2.989947 l -0.63362,-0.736628 H 25.274238 14.464581 l -0.63362,0.736628 c -1.039657,1.20867 -0.651969,3.015641 0.772811,3.602019 0.309444,0.127354 5.269157,0.20748 11.021583,0.178054 l 10.458957,-0.05351 z m -0.174355,-7.425489 c 1.028186,-0.865163 1.09619,-2.106215 0.174146,-3.178156 l -0.63362,-0.736626 H 25.274238 14.464581 l -0.63362,0.736626 c -0.922045,1.071941 -0.854043,2.312993 0.174146,3.178156 l 0.807765,0.67969 h 10.461366 10.461365 z"
     id="path1" />
</svg>
