<?xml version="1.0" encoding="UTF-8" standalone="no"?>
<!-- Created with Inkscape (http://www.inkscape.org/) -->

<svg
   width="14.807348mm"
   height="14.789833mm"
   viewBox="0 0 14.807348 14.789833"
   version="1.1"
   id="svg1"
   sodipodi:docname="profile.svg"
   inkscape:version="1.3.2 (1:1.3.2+202311252150+091e20ef0f)"
   xmlns:inkscape="http://www.inkscape.org/namespaces/inkscape"
   xmlns:sodipodi="http://sodipodi.sourceforge.net/DTD/sodipodi-0.dtd"
   xmlns="http://www.w3.org/2000/svg"
   xmlns:svg="http://www.w3.org/2000/svg">
  <sodipodi:namedview
     id="namedview1"
     pagecolor="#ffffff"
     bordercolor="#000000"
     borderopacity="0.25"
     inkscape:showpageshadow="2"
     inkscape:pageopacity="0.0"
     inkscape:pagecheckerboard="0"
     inkscape:deskcolor="#d1d1d1"
     inkscape:document-units="mm"
     inkscape:zoom="5.8368687"
     inkscape:cx="15.933201"
     inkscape:cy="23.043177"
     inkscape:window-width="1920"
     inkscape:window-height="1017"
     inkscape:window-x="0"
     inkscape:window-y="26"
     inkscape:window-maximized="1"
     inkscape:current-layer="layer1" />
  <defs
     id="defs1" />
  <g
     inkscape:label="Layer 1"
     inkscape:groupmode="layer"
     id="layer1"
     transform="translate(-104.51042,-99.218751)">
    <path
       style="fill:#333333;stroke-width:0.128444"
       d="m 105.35509,113.63728 c -0.0471,-0.0471 -0.0856,-0.54032 -0.0856,-1.09605 0,-1.54121 0.57959,-2.50566 1.92666,-3.20602 0.56961,-0.29615 0.63566,-0.30051 4.55975,-0.30051 3.88656,0 3.99473,0.007 4.52407,0.2898 0.82137,0.43889 1.42984,1.03044 1.78903,1.73927 0.34161,0.67413 0.52046,1.76826 0.38033,2.32661 l -0.0835,0.33253 h -6.46256 c -3.55441,0 -6.50109,-0.0385 -6.54818,-0.0856 z m 5.48157,-5.74139 c -1.84831,-0.46785 -3.11406,-2.01223 -3.22484,-3.93472 -0.0443,-0.76928 1.3e-4,-1.11085 0.22084,-1.69566 0.36227,-0.95999 1.23764,-1.92145 2.16319,-2.375955 0.64133,-0.31494 0.8763,-0.35905 1.88846,-0.35453 1.2019,0.006 1.7203,0.17517 2.66331,0.872355 0.57562,0.42558 1.23045,1.49718 1.4545,2.38025 0.76069,2.99811 -2.14594,5.87256 -5.16546,5.10826 z"
       id="path1" />
  </g>
</svg>
