<?xml version="1.0" encoding="UTF-8" standalone="no"?>
<svg
   viewBox="0 0 50 50"
   width="50px"
   height="50px"
   version="1.1"
   id="svg1"
   sodipodi:docname="send.svg"
   inkscape:version="1.3.2 (1:1.3.2+202311252150+091e20ef0f)"
   xmlns:inkscape="http://www.inkscape.org/namespaces/inkscape"
   xmlns:sodipodi="http://sodipodi.sourceforge.net/DTD/sodipodi-0.dtd"
   xmlns="http://www.w3.org/2000/svg"
   xmlns:svg="http://www.w3.org/2000/svg">
  <defs
     id="defs1" />
  <sodipodi:namedview
     id="namedview1"
     pagecolor="#ffffff"
     bordercolor="#000000"
     borderopacity="0.25"
     inkscape:showpageshadow="2"
     inkscape:pageopacity="0.0"
     inkscape:pagecheckerboard="0"
     inkscape:deskcolor="#d1d1d1"
     inkscape:zoom="5.4022958"
     inkscape:cx="14.901072"
     inkscape:cy="43.777684"
     inkscape:window-width="1920"
     inkscape:window-height="1017"
     inkscape:window-x="0"
     inkscape:window-y="26"
     inkscape:window-maximized="1"
     inkscape:current-layer="svg1" />
  <path
     style="fill:#1a1a1a;stroke-width:0.108544"
     d="M 3.4356795,48.000662 C 3.1725727,47.861754 2.8107643,47.540052 2.6316664,47.285777 2.3376264,46.868304 2.3062603,46.742723 2.3083747,45.991578 c 0.0025,-0.820087 0.04287,-0.940241 2.8649075,-8.484226 1.5744126,-4.208794 2.9165934,-7.707932 2.9826219,-7.77585 0.066012,-0.06793 5.9081629,-1.083902 12.9825309,-2.25774 7.07436,-1.173846 12.935741,-2.161943 13.025286,-2.195773 0.08955,-0.0338 -5.717687,-1.044911 -12.904974,-2.246835 C 11.483544,21.396449 8.166759,20.804814 8.0949284,20.683021 8.0421522,20.593468 6.6778537,16.978946 5.063218,12.650756 2.3338721,5.3344329 2.1306421,4.7409836 2.1717559,4.2076442 2.2649384,2.9988608 3.3395086,2.1219766 4.7276229,2.1219766 h 0.7002337 l 12.0070954,6.037599 c 29.405831,14.7862964 30.03644,15.1085804 30.443075,15.5586764 0.781321,0.864839 0.796513,2.088748 0.03571,2.879375 -0.25067,0.26051 -4.109061,2.247459 -14.129939,7.276466 -7.581803,3.804957 -17.113478,8.596829 -21.1815,10.648616 -7.246889,3.655094 -7.409463,3.730513 -8.042328,3.730513 -0.4667282,0 -0.7786322,-0.07009 -1.1243081,-0.25256 z"
     id="path1" />
</svg>
