<?xml version="1.0" encoding="UTF-8" standalone="no"?>
<!-- Created with Inkscape (http://www.inkscape.org/) -->

<svg
   width="15.955053mm"
   height="15.962916mm"
   viewBox="0 0 15.955053 15.962916"
   version="1.1"
   id="svg1"
   inkscape:version="1.3.2 (1:1.3.2+202311252150+091e20ef0f)"
   sodipodi:docname="tag-icon-dark.svg"
   xmlns:inkscape="http://www.inkscape.org/namespaces/inkscape"
   xmlns:sodipodi="http://sodipodi.sourceforge.net/DTD/sodipodi-0.dtd"
   xmlns="http://www.w3.org/2000/svg"
   xmlns:svg="http://www.w3.org/2000/svg">
  <sodipodi:namedview
     id="namedview1"
     pagecolor="#ffffff"
     bordercolor="#000000"
     borderopacity="0.25"
     inkscape:showpageshadow="2"
     inkscape:pageopacity="0.0"
     inkscape:pagecheckerboard="0"
     inkscape:deskcolor="#d1d1d1"
     inkscape:document-units="mm"
     inkscape:zoom="4.1323288"
     inkscape:cx="2.7829344"
     inkscape:cy="49.850825"
     inkscape:window-width="1920"
     inkscape:window-height="1018"
     inkscape:window-x="0"
     inkscape:window-y="26"
     inkscape:window-maximized="1"
     inkscape:current-layer="layer1" />
  <defs
     id="defs1" />
  <g
     inkscape:label="Layer 1"
     inkscape:groupmode="layer"
     id="layer1"
     transform="translate(-71.900184,-124.02659)">
    <path
       style="fill:#ffffff;stroke-width:0.0313263"
       d="m 78.158215,139.80591 c -0.06892,-0.026 -0.132176,-0.0474 -0.140573,-0.0476 -0.0084,-2.4e-4 -1.323892,-1.30795 -2.923323,-2.90598 -1.698491,-1.69701 -2.936255,-2.95763 -2.975851,-3.03082 -0.09659,-0.17853 -0.09655,-0.57341 6.4e-5,-0.75183 0.103368,-0.19085 8.446331,-8.5124 8.621822,-8.59968 0.07628,-0.0379 0.217253,-0.0758 0.313262,-0.0841 0.118593,-0.0102 0.894781,0.0812 2.420807,0.28541 1.235435,0.1653 2.266753,0.30053 2.291817,0.30053 0.02507,0 0.103489,-0.10552 0.174275,-0.2345 0.07078,-0.12898 0.171701,-0.28348 0.224258,-0.34333 0.249831,-0.28453 0.74104,-0.37221 1.0994,-0.19624 0.335542,0.16478 0.509481,0.44984 0.510547,0.83672 5.93e-4,0.19454 -0.01439,0.26557 -0.08675,0.41294 -0.104781,0.21337 -0.227322,0.32642 -0.539568,0.49779 -0.128975,0.0708 -0.234501,0.14922 -0.234501,0.17428 0,0.0251 0.135239,1.05638 0.300531,2.29181 0.20417,1.52603 0.295683,2.30222 0.285411,2.42081 -0.0083,0.096 -0.04616,0.23698 -0.08411,0.31327 -0.08963,0.1802 -8.411945,8.52143 -8.599677,8.61921 -0.163105,0.085 -0.487318,0.10529 -0.657851,0.0412 z m 7.026521,-11.97041 c 0.409508,-0.20406 0.591898,-0.7176 0.39819,-1.12114 l -0.05831,-0.12146 -0.06503,0.12041 c -0.100045,0.18529 -0.24957,0.32614 -0.346233,0.32614 -0.102932,0 -0.266995,-0.15502 -0.266995,-0.25229 0,-0.038 0.05265,-0.16662 0.117007,-0.28577 0.135811,-0.25145 0.124214,-0.27516 -0.134921,-0.27595 -0.485223,-9.9e-4 -0.859627,0.36629 -0.858916,0.84365 7.11e-4,0.48907 0.356977,0.84515 0.847185,0.84681 0.159012,5.2e-4 0.241988,-0.0176 0.368009,-0.0805 z m 1.79309,-2.41258 c 0.271169,-0.15893 0.344765,-0.34812 0.223426,-0.57439 -0.110355,-0.20576 -0.386467,-0.27582 -0.582042,-0.14768 -0.102729,0.0674 -0.290465,0.40494 -0.235375,0.4233 0.06816,0.0227 0.338443,0.28807 0.35882,0.35227 0.01036,0.0326 0.02419,0.0593 0.03072,0.0593 0.0065,0 0.09855,-0.0507 0.204457,-0.11287 z"
       id="path1" />
  </g>
</svg>
