<?xml version="1.0" encoding="UTF-8" standalone="no"?>
<!-- Generator: Adobe Illustrator 19.1.0, SVG Export Plug-In . SVG Version: 6.00 Build 0)  -->

<svg
   version="1.1"
   x="0px"
   y="0px"
   viewBox="0 0 100 100"
   style="enable-background:new 0 0 100 100;"
   xml:space="preserve"
   id="svg3"
   sodipodi:docname="upload.svg"
   inkscape:version="1.3.2 (1:1.3.2+202311252150+091e20ef0f)"
   xmlns:inkscape="http://www.inkscape.org/namespaces/inkscape"
   xmlns:sodipodi="http://sodipodi.sourceforge.net/DTD/sodipodi-0.dtd"
   xmlns="http://www.w3.org/2000/svg"
   xmlns:svg="http://www.w3.org/2000/svg"><defs
   id="defs3" /><sodipodi:namedview
   id="namedview3"
   pagecolor="#ffffff"
   bordercolor="#000000"
   borderopacity="0.25"
   inkscape:showpageshadow="2"
   inkscape:pageopacity="0.0"
   inkscape:pagecheckerboard="0"
   inkscape:deskcolor="#d1d1d1"
   inkscape:zoom="1.350574"
   inkscape:cx="-47.387261"
   inkscape:cy="213.61289"
   inkscape:window-width="1920"
   inkscape:window-height="1017"
   inkscape:window-x="0"
   inkscape:window-y="26"
   inkscape:window-maximized="1"
   inkscape:current-layer="svg3" />
<style
   type="text/css"
   id="style1">
	.st0{fill:#5394F2;}
	.st1{fill:#FFFFFF;stroke:#FFFFFF;stroke-width:4;stroke-linejoin:round;stroke-miterlimit:10;}
	.st2{fill:#0F62F4;}
	.st3{fill:#0F62F4;stroke:#0F62F4;stroke-width:4;stroke-linecap:round;stroke-linejoin:round;stroke-miterlimit:10;}
</style>


<path
   style="fill:#2ad4ff;stroke-width:0.472357"
   d="M 39.946611,98.109728 C 20.712329,93.85404 6.2774929,79.148936 2.3704281,59.830001 1.7366811,56.696366 1.6170645,54.32549 1.8103867,48.729613 2.0769472,41.013759 3.072909,36.518058 5.8940819,30.296095 13.116018,14.368458 29.405804,3.124756 46.458247,2.2974833 51.529152,2.0514758 51.844545,2.0910588 52.928656,3.1095287 54.446821,4.5357695 54.829463,6.4789168 53.933378,8.2117504 53.024568,9.9691981 51.518136,10.529872 46.775992,10.87564 30.343869,12.073765 16.193334,23.859631 11.52382,40.236887 10.11174,45.189433 9.9871293,55.025898 11.272994,60.036385 l 0.848698,3.307038 7.889907,0.0227 c 8.505479,0.02448 13.124052,0.688702 20.111672,2.892414 7.610717,2.400224 12.609035,5.417385 18.796898,11.346482 3.605956,3.455151 4.300472,3.923081 5.822708,3.923081 1.280527,0 2.086184,-0.357784 3.109134,-1.380737 2.593256,-2.593247 1.785922,-4.783006 -3.693505,-10.018022 -5.458861,-5.215362 -11.34939,-8.936878 -18.24347,-11.525866 -2.130946,-0.800246 -2.233862,-0.91104 -1.417071,-1.52553 1.846827,-1.389423 8.233676,-4.360881 12.758573,-5.935898 9.080322,-3.160678 18.795923,-4.636387 31.20906,-4.740386 l 7.660102,-0.06417 1.253258,1.248293 c 1.170623,1.165985 1.248761,1.508591 1.184993,5.195926 -0.353054,20.414982 -14.614686,38.441234 -35.293132,44.609393 -5.770143,1.721181 -17.20118,2.073364 -23.324208,0.71861 z M 30.91754,45.478431 c -3.9116,-1.463778 -6.106571,-3.99042 -7.02436,-8.085775 -1.260412,-5.624214 1.968477,-11.085055 7.529628,-12.734442 5.010927,-1.486195 10.622841,0.692002 12.80546,4.970285 2.865133,5.616132 0.879576,12.422689 -4.411241,15.121864 -2.417757,1.233447 -6.628447,1.577923 -8.899487,0.728068 z M 78.1712,35.745807 c -1.359878,-1.359878 -1.380738,-1.459782 -1.380738,-6.613 v -5.232264 h -5.232261 c -5.153217,0 -5.253126,-0.02086 -6.612999,-1.380736 -1.804541,-1.804537 -1.896683,-4.286903 -0.221313,-5.96227 1.097091,-1.097094 1.452588,-1.159421 6.612998,-1.159421 h 5.453575 V 10.41491 c 0,-5.1714139 0.588746,-7.3515012 2.146769,-7.9493726 1.493957,-0.5732846 3.905359,-0.2803723 5.004349,0.6078764 1.029517,0.8320957 1.133265,1.3307519 1.35131,6.4949089 l 0.236179,5.5936153 5.593614,0.236178 c 5.164157,0.218046 5.662815,0.321795 6.49491,1.351311 0.888248,1.098992 1.181161,3.510392 0.607876,5.004347 -0.597872,1.558025 -2.777961,2.146769 -7.949372,2.146769 H 85.29289 v 5.45466 c 0,5.29183 -0.03732,5.489237 -1.249867,6.612999 -1.778858,1.648587 -4.088307,1.561116 -5.871823,-0.222395 z"
   id="path1" /></svg>
